solid OpenSCAD_Model
  facet normal -1 0 0
    outer loop
      vertex -40.5 -0.4 0
      vertex -40.5 -0.4 5.7
      vertex -40.5 0.4 0
    endloop
  endfacet
  facet normal -1 0 0
    outer loop
      vertex -40.5 0.4 0
      vertex -40.5 -0.4 5.7
      vertex -40.5 0.4 5.7
    endloop
  endfacet
  facet normal 0 0 -1
    outer loop
      vertex -40.5 -0.4 0
      vertex -40.5 0.4 0
      vertex -40.4904 0.596034 0
    endloop
  endfacet
  facet normal 0 0 -1
    outer loop
      vertex -40.5 -0.4 0
      vertex -40.4904 0.596034 0
      vertex -40.4616 0.790181 0
    endloop
  endfacet
  facet normal 0 0 -1
    outer loop
      vertex -40.5 -0.4 0
      vertex -40.4616 0.790181 0
      vertex -40.4139 0.980569 0
    endloop
  endfacet
  facet normal 0 0 -1
    outer loop
      vertex -40.5 -0.4 0
      vertex -40.4139 0.980569 0
      vertex -40.3478 1.16537 0
    endloop
  endfacet
  facet normal 0 0 -1
    outer loop
      vertex -40.5 -0.4 0
      vertex -40.3478 1.16537 0
      vertex -40.2638 1.34279 0
    endloop
  endfacet
  facet normal 0 0 -1
    outer loop
      vertex -40.5 -0.4 0
      vertex -40.2638 1.34279 0
      vertex -40.1629 1.51114 0
    endloop
  endfacet
  facet normal 0 0 -1
    outer loop
      vertex -40.5 -0.4 0
      vertex -40.1629 1.51114 0
      vertex -40.046 1.66879 0
    endloop
  endfacet
  facet normal 0 0 -1
    outer loop
      vertex -40.5 -0.4 0
      vertex -40.046 1.66879 0
      vertex -39.9142 1.81421 0
    endloop
  endfacet
  facet normal 0 0 -1
    outer loop
      vertex -40.5 -0.4 0
      vertex -39.9142 1.81421 0
      vertex -39.7688 1.94602 0
    endloop
  endfacet
  facet normal 0 0 -1
    outer loop
      vertex -40.5 -0.4 0
      vertex -39.7688 1.94602 0
      vertex -39.6111 2.06294 0
    endloop
  endfacet
  facet normal 0 0 -1
    outer loop
      vertex -40.5 -0.4 0
      vertex -39.6111 2.06294 0
      vertex -39.4428 2.16384 0
    endloop
  endfacet
  facet normal 0 0 -1
    outer loop
      vertex -40.5 -0.4 0
      vertex -39.4428 2.16384 0
      vertex -39.2654 2.24776 0
    endloop
  endfacet
  facet normal 0 0 -1
    outer loop
      vertex -40.5 -0.4 0
      vertex -39.2654 2.24776 0
      vertex -39.0806 2.31388 0
    endloop
  endfacet
  facet normal 0 0 -1
    outer loop
      vertex -40.5 -0.4 0
      vertex -39.0806 2.31388 0
      vertex -38.8902 2.36157 0
    endloop
  endfacet
  facet normal 0 0 -1
    outer loop
      vertex -40.5 -0.4 0
      vertex -38.8902 2.36157 0
      vertex -38.696 2.39037 0
    endloop
  endfacet
  facet normal 0 0 -1
    outer loop
      vertex -40.5 -0.4 0
      vertex -38.696 2.39037 0
      vertex -38.5 2.4 0
    endloop
  endfacet
  facet normal 0 0 -1
    outer loop
      vertex -38.5 2.4 0
      vertex -22.7 2.4 0
      vertex -40.5 -0.4 0
    endloop
  endfacet
  facet normal 0 0 -1
    outer loop
      vertex -40.5 -0.4 0
      vertex -22.7 2.4 0
      vertex -22.504 2.39037 0
    endloop
  endfacet
  facet normal 0 0 -1
    outer loop
      vertex -40.5 -0.4 0
      vertex -22.504 2.39037 0
      vertex -22.3098 2.36157 0
    endloop
  endfacet
  facet normal 0 0 -1
    outer loop
      vertex -40.5 -0.4 0
      vertex -22.3098 2.36157 0
      vertex -22.2 2.33406 0
    endloop
  endfacet
  facet normal 0 0 -1
    outer loop
      vertex -21.3111 -8.98979 0
      vertex -20.7806 -9.22819 0
      vertex -21.1428 -9.08565 0
    endloop
  endfacet
  facet normal 0 0 -1
    outer loop
      vertex -22.2 7.41 0
      vertex -22.1904 7.59623 0
      vertex -22.2 2.33406 0
    endloop
  endfacet
  facet normal 0 0 -1
    outer loop
      vertex -22.2 2.33406 0
      vertex -22.1904 7.59623 0
      vertex -22.1616 7.78067 0
    endloop
  endfacet
  facet normal 0 0 -1
    outer loop
      vertex -22.2 2.33406 0
      vertex -22.1616 7.78067 0
      vertex -22.1139 7.96154 0
    endloop
  endfacet
  facet normal 0 0 -1
    outer loop
      vertex -22.2 2.33406 0
      vertex -22.1139 7.96154 0
      vertex -22.0478 8.1371 0
    endloop
  endfacet
  facet normal 0 0 -1
    outer loop
      vertex -22.2 2.33406 0
      vertex -22.0478 8.1371 0
      vertex -21.9638 8.30565 0
    endloop
  endfacet
  facet normal 0 0 -1
    outer loop
      vertex -22.2 2.33406 0
      vertex -21.9638 8.30565 0
      vertex -21.8629 8.46558 0
    endloop
  endfacet
  facet normal 0 0 -1
    outer loop
      vertex -22.2 2.33406 0
      vertex -21.8629 8.46558 0
      vertex -21.746 8.61535 0
    endloop
  endfacet
  facet normal 0 0 -1
    outer loop
      vertex -21.746 8.61535 0
      vertex -21.6142 8.7535 0
      vertex -22.2 2.33406 0
    endloop
  endfacet
  facet normal 0 0 -1
    outer loop
      vertex -22.2 2.33406 0
      vertex -21.6142 8.7535 0
      vertex -21.4688 8.87872 0
    endloop
  endfacet
  facet normal 0 0 -1
    outer loop
      vertex -22.2 2.33406 0
      vertex -21.4688 8.87872 0
      vertex -21.3111 8.98979 0
    endloop
  endfacet
  facet normal 0 0 -1
    outer loop
      vertex -22.2 2.33406 0
      vertex -21.3111 8.98979 0
      vertex -21.1428 9.08565 0
    endloop
  endfacet
  facet normal 0 0 -1
    outer loop
      vertex -22.2 2.33406 0
      vertex -21.1428 9.08565 0
      vertex -20.9654 9.16537 0
    endloop
  endfacet
  facet normal 0 0 -1
    outer loop
      vertex -22.2 2.33406 0
      vertex -20.9654 9.16537 0
      vertex -20.7806 9.22819 0
    endloop
  endfacet
  facet normal 0 0 -1
    outer loop
      vertex -22.2 2.33406 0
      vertex -20.7806 9.22819 0
      vertex -20.5902 9.27349 0
    endloop
  endfacet
  facet normal 0 0 -1
    outer loop
      vertex -22.2 2.33406 0
      vertex -20.5902 9.27349 0
      vertex -20.396 9.30085 0
    endloop
  endfacet
  facet normal 0 0 -1
    outer loop
      vertex -22.2 2.33406 0
      vertex -20.396 9.30085 0
      vertex -20.2 9.31 0
    endloop
  endfacet
  facet normal 0 0 -1
    outer loop
      vertex -22.2 2.33406 0
      vertex -20.2 9.31 0
      vertex -10 9.31 0
    endloop
  endfacet
  facet normal 0 0 -1
    outer loop
      vertex -22.2 2.33406 0
      vertex -10 9.31 0
      vertex -10 8.41488 0
    endloop
  endfacet
  facet normal 0 0 -1
    outer loop
      vertex -22.2 2.33406 0
      vertex -10 8.41488 0
      vertex -10.4446 8.1484 0
    endloop
  endfacet
  facet normal 0 0 -1
    outer loop
      vertex -22.2 2.33406 0
      vertex -10.4446 8.1484 0
      vertex -11.2171 7.5755 0
    endloop
  endfacet
  facet normal 0 0 -1
    outer loop
      vertex -22.2 2.33406 0
      vertex -14.378 2.84479 0
      vertex -40.5 -0.4 0
    endloop
  endfacet
  facet normal 0 0 -1
    outer loop
      vertex -11.2171 7.5755 0
      vertex -11.9296 6.92965 0
      vertex -22.2 2.33406 0
    endloop
  endfacet
  facet normal 0 0 -1
    outer loop
      vertex -11.9296 6.92965 0
      vertex -12.5755 6.21705 0
      vertex -22.2 2.33406 0
    endloop
  endfacet
  facet normal 0 0 -1
    outer loop
      vertex -12.5755 6.21705 0
      vertex -13.1484 5.44459 0
      vertex -22.2 2.33406 0
    endloop
  endfacet
  facet normal 0 0 -1
    outer loop
      vertex -13.1484 5.44459 0
      vertex -13.6428 4.61969 0
      vertex -22.2 2.33406 0
    endloop
  endfacet
  facet normal 0 0 -1
    outer loop
      vertex -13.6428 4.61969 0
      vertex -14.054 3.7503 0
      vertex -22.2 2.33406 0
    endloop
  endfacet
  facet normal 0 0 -1
    outer loop
      vertex -14.054 3.7503 0
      vertex -14.378 2.84479 0
      vertex -22.2 2.33406 0
    endloop
  endfacet
  facet normal 0 0 -1
    outer loop
      vertex -14.378 2.84479 0
      vertex -14.6117 1.91188 0
      vertex -40.5 -0.4 0
    endloop
  endfacet
  facet normal 0 0 -1
    outer loop
      vertex -14.6117 1.91188 0
      vertex -14.7528 0.960568 0
      vertex -40.5 -0.4 0
    endloop
  endfacet
  facet normal 0 0 -1
    outer loop
      vertex -14.7528 0.960568 0
      vertex -14.8 0 0
      vertex -40.5 -0.4 0
    endloop
  endfacet
  facet normal 0 0 -1
    outer loop
      vertex -14.8 0 0
      vertex -14.7528 -0.960568 0
      vertex -40.5 -0.4 0
    endloop
  endfacet
  facet normal 0 0 -1
    outer loop
      vertex -22.2 -2.33406 0
      vertex -13.1484 -5.44459 0
      vertex -12.5755 -6.21705 0
    endloop
  endfacet
  facet normal 0 0 -1
    outer loop
      vertex -20.7806 -9.22819 0
      vertex -20.9654 -9.16537 0
      vertex -21.1428 -9.08565 0
    endloop
  endfacet
  facet normal 0 0 -1
    outer loop
      vertex -20.5902 -9.27349 0
      vertex -20.7806 -9.22819 0
      vertex -21.3111 -8.98979 0
    endloop
  endfacet
  facet normal 0 0 -1
    outer loop
      vertex -20.396 -9.30085 0
      vertex -20.5902 -9.27349 0
      vertex -21.4688 -8.87872 0
    endloop
  endfacet
  facet normal 0 0 -1
    outer loop
      vertex -20.2 -9.31 0
      vertex -20.396 -9.30085 0
      vertex -21.6142 -8.7535 0
    endloop
  endfacet
  facet normal 0 0 -1
    outer loop
      vertex -10 -9.31 0
      vertex -20.2 -9.31 0
      vertex -21.746 -8.61535 0
    endloop
  endfacet
  facet normal 0 0 -1
    outer loop
      vertex -10 -9.31 0
      vertex -21.746 -8.61535 0
      vertex -21.8629 -8.46558 0
    endloop
  endfacet
  facet normal 0 0 -1
    outer loop
      vertex -10 -9.31 0
      vertex -21.8629 -8.46558 0
      vertex -21.9638 -8.30565 0
    endloop
  endfacet
  facet normal 0 0 -1
    outer loop
      vertex -10 -9.31 0
      vertex -21.9638 -8.30565 0
      vertex -22.0478 -8.1371 0
    endloop
  endfacet
  facet normal 0 0 -1
    outer loop
      vertex -10 -9.31 0
      vertex -22.0478 -8.1371 0
      vertex -22.1139 -7.96154 0
    endloop
  endfacet
  facet normal 0 0 -1
    outer loop
      vertex -10 -9.31 0
      vertex -22.1139 -7.96154 0
      vertex -22.1616 -7.78067 0
    endloop
  endfacet
  facet normal 0 0 -1
    outer loop
      vertex -10 -9.31 0
      vertex -22.1616 -7.78067 0
      vertex -22.1904 -7.59623 0
    endloop
  endfacet
  facet normal 0 0 -1
    outer loop
      vertex -10 -9.31 0
      vertex -22.1904 -7.59623 0
      vertex -22.2 -7.41 0
    endloop
  endfacet
  facet normal 0 0 -1
    outer loop
      vertex -14.378 -2.84479 0
      vertex -14.054 -3.7503 0
      vertex -22.2 -2.33406 0
    endloop
  endfacet
  facet normal 0 0 -1
    outer loop
      vertex -22.2 -2.33406 0
      vertex -12.5755 -6.21705 0
      vertex -11.9296 -6.92965 0
    endloop
  endfacet
  facet normal 0 0 -1
    outer loop
      vertex -38.5 -2.4 0
      vertex -40.5 -0.4 0
      vertex -22.7 -2.4 0
    endloop
  endfacet
  facet normal 0 0 -1
    outer loop
      vertex -22.2 -2.33406 0
      vertex -11.9296 -6.92965 0
      vertex -11.2171 -7.5755 0
    endloop
  endfacet
  facet normal 0 0 -1
    outer loop
      vertex -22.2 -2.33406 0
      vertex -11.2171 -7.5755 0
      vertex -10.4446 -8.1484 0
    endloop
  endfacet
  facet normal 0 0 -1
    outer loop
      vertex -22.2 -2.33406 0
      vertex -10.4446 -8.1484 0
      vertex -10 -8.41488 0
    endloop
  endfacet
  facet normal 0 0 -1
    outer loop
      vertex -22.2 -2.33406 0
      vertex -10 -8.41488 0
      vertex -10 -9.31 0
    endloop
  endfacet
  facet normal 0 0 -1
    outer loop
      vertex -22.2 -2.33406 0
      vertex -10 -9.31 0
      vertex -22.2 -7.41 0
    endloop
  endfacet
  facet normal 0 0 -1
    outer loop
      vertex -40.5 -0.4 0
      vertex -14.7528 -0.960568 0
      vertex -14.6117 -1.91188 0
    endloop
  endfacet
  facet normal 0 0 -1
    outer loop
      vertex -40.5 -0.4 0
      vertex -14.6117 -1.91188 0
      vertex -14.378 -2.84479 0
    endloop
  endfacet
  facet normal 0 0 -1
    outer loop
      vertex -40.5 -0.4 0
      vertex -14.378 -2.84479 0
      vertex -22.2 -2.33406 0
    endloop
  endfacet
  facet normal 0 0 -1
    outer loop
      vertex -40.5 -0.4 0
      vertex -22.2 -2.33406 0
      vertex -22.3098 -2.36157 0
    endloop
  endfacet
  facet normal 0 0 -1
    outer loop
      vertex -40.5 -0.4 0
      vertex -22.3098 -2.36157 0
      vertex -22.504 -2.39037 0
    endloop
  endfacet
  facet normal 0 0 -1
    outer loop
      vertex -40.5 -0.4 0
      vertex -22.504 -2.39037 0
      vertex -22.7 -2.4 0
    endloop
  endfacet
  facet normal 0 0 -1
    outer loop
      vertex -22.2 -2.33406 0
      vertex -14.054 -3.7503 0
      vertex -13.6428 -4.61969 0
    endloop
  endfacet
  facet normal 0 0 -1
    outer loop
      vertex -22.2 -2.33406 0
      vertex -13.6428 -4.61969 0
      vertex -13.1484 -5.44459 0
    endloop
  endfacet
  facet normal 0 0 -1
    outer loop
      vertex -21.746 -8.61535 0
      vertex -20.2 -9.31 0
      vertex -21.6142 -8.7535 0
    endloop
  endfacet
  facet normal 0 0 -1
    outer loop
      vertex -21.6142 -8.7535 0
      vertex -20.396 -9.30085 0
      vertex -21.4688 -8.87872 0
    endloop
  endfacet
  facet normal 0 0 -1
    outer loop
      vertex -21.4688 -8.87872 0
      vertex -20.5902 -9.27349 0
      vertex -21.3111 -8.98979 0
    endloop
  endfacet
  facet normal 0 0 -1
    outer loop
      vertex -40.5 -0.4 0
      vertex -38.5 -2.4 0
      vertex -38.696 -2.39037 0
    endloop
  endfacet
  facet normal 0 0 -1
    outer loop
      vertex -40.5 -0.4 0
      vertex -38.696 -2.39037 0
      vertex -38.8902 -2.36157 0
    endloop
  endfacet
  facet normal 0 0 -1
    outer loop
      vertex -40.5 -0.4 0
      vertex -38.8902 -2.36157 0
      vertex -39.0806 -2.31388 0
    endloop
  endfacet
  facet normal 0 0 -1
    outer loop
      vertex -40.5 -0.4 0
      vertex -39.0806 -2.31388 0
      vertex -39.2654 -2.24776 0
    endloop
  endfacet
  facet normal 0 0 -1
    outer loop
      vertex -40.5 -0.4 0
      vertex -39.2654 -2.24776 0
      vertex -39.4428 -2.16384 0
    endloop
  endfacet
  facet normal 0 0 -1
    outer loop
      vertex -40.5 -0.4 0
      vertex -39.4428 -2.16384 0
      vertex -39.6111 -2.06294 0
    endloop
  endfacet
  facet normal 0 0 -1
    outer loop
      vertex -40.5 -0.4 0
      vertex -39.6111 -2.06294 0
      vertex -39.7688 -1.94602 0
    endloop
  endfacet
  facet normal 0 0 -1
    outer loop
      vertex -40.5 -0.4 0
      vertex -39.7688 -1.94602 0
      vertex -39.9142 -1.81421 0
    endloop
  endfacet
  facet normal 0 0 -1
    outer loop
      vertex -40.5 -0.4 0
      vertex -39.9142 -1.81421 0
      vertex -40.046 -1.66879 0
    endloop
  endfacet
  facet normal 0 0 -1
    outer loop
      vertex -40.5 -0.4 0
      vertex -40.046 -1.66879 0
      vertex -40.1629 -1.51114 0
    endloop
  endfacet
  facet normal 0 0 -1
    outer loop
      vertex -40.5 -0.4 0
      vertex -40.1629 -1.51114 0
      vertex -40.2638 -1.34279 0
    endloop
  endfacet
  facet normal 0 0 -1
    outer loop
      vertex -40.5 -0.4 0
      vertex -40.2638 -1.34279 0
      vertex -40.3478 -1.16537 0
    endloop
  endfacet
  facet normal 0 0 -1
    outer loop
      vertex -40.5 -0.4 0
      vertex -40.3478 -1.16537 0
      vertex -40.4139 -0.980569 0
    endloop
  endfacet
  facet normal 0 0 -1
    outer loop
      vertex -40.5 -0.4 0
      vertex -40.4139 -0.980569 0
      vertex -40.4616 -0.790181 0
    endloop
  endfacet
  facet normal 0 0 -1
    outer loop
      vertex -40.5 -0.4 0
      vertex -40.4616 -0.790181 0
      vertex -40.4904 -0.596034 0
    endloop
  endfacet
  facet normal 0 0 1
    outer loop
      vertex -38.5 -2.4 5.7
      vertex -22.7 -2.4 5.7
      vertex -40.5 0.4 5.7
    endloop
  endfacet
  facet normal 0 0 1
    outer loop
      vertex -40.4904 -0.596034 5.7
      vertex -40.5 0.4 5.7
      vertex -40.5 -0.4 5.7
    endloop
  endfacet
  facet normal 0 0 1
    outer loop
      vertex -40.4904 -0.596034 5.7
      vertex -40.4616 -0.790181 5.7
      vertex -40.5 0.4 5.7
    endloop
  endfacet
  facet normal 0 0 1
    outer loop
      vertex -40.4616 -0.790181 5.7
      vertex -40.4139 -0.980569 5.7
      vertex -40.5 0.4 5.7
    endloop
  endfacet
  facet normal 0 0 1
    outer loop
      vertex -40.4139 -0.980569 5.7
      vertex -40.3478 -1.16537 5.7
      vertex -40.5 0.4 5.7
    endloop
  endfacet
  facet normal 0 0 1
    outer loop
      vertex -40.3478 -1.16537 5.7
      vertex -40.2638 -1.34279 5.7
      vertex -40.5 0.4 5.7
    endloop
  endfacet
  facet normal 0 0 1
    outer loop
      vertex -40.2638 -1.34279 5.7
      vertex -40.1629 -1.51114 5.7
      vertex -40.5 0.4 5.7
    endloop
  endfacet
  facet normal 0 0 1
    outer loop
      vertex -40.1629 -1.51114 5.7
      vertex -40.046 -1.66879 5.7
      vertex -40.5 0.4 5.7
    endloop
  endfacet
  facet normal 0 0 1
    outer loop
      vertex -40.046 -1.66879 5.7
      vertex -39.9142 -1.81421 5.7
      vertex -40.5 0.4 5.7
    endloop
  endfacet
  facet normal 0 0 1
    outer loop
      vertex -39.9142 -1.81421 5.7
      vertex -39.7688 -1.94602 5.7
      vertex -40.5 0.4 5.7
    endloop
  endfacet
  facet normal 0 0 1
    outer loop
      vertex -39.7688 -1.94602 5.7
      vertex -39.6111 -2.06294 5.7
      vertex -40.5 0.4 5.7
    endloop
  endfacet
  facet normal 0 0 1
    outer loop
      vertex -39.6111 -2.06294 5.7
      vertex -39.4428 -2.16384 5.7
      vertex -40.5 0.4 5.7
    endloop
  endfacet
  facet normal 0 0 1
    outer loop
      vertex -39.4428 -2.16384 5.7
      vertex -39.2654 -2.24776 5.7
      vertex -40.5 0.4 5.7
    endloop
  endfacet
  facet normal 0 0 1
    outer loop
      vertex -39.2654 -2.24776 5.7
      vertex -39.0806 -2.31388 5.7
      vertex -40.5 0.4 5.7
    endloop
  endfacet
  facet normal 0 0 1
    outer loop
      vertex -39.0806 -2.31388 5.7
      vertex -38.8902 -2.36157 5.7
      vertex -40.5 0.4 5.7
    endloop
  endfacet
  facet normal 0 0 1
    outer loop
      vertex -38.8902 -2.36157 5.7
      vertex -38.696 -2.39037 5.7
      vertex -40.5 0.4 5.7
    endloop
  endfacet
  facet normal 0 0 1
    outer loop
      vertex -38.696 -2.39037 5.7
      vertex -38.5 -2.4 5.7
      vertex -40.5 0.4 5.7
    endloop
  endfacet
  facet normal 0 0 1
    outer loop
      vertex -22.2 -2.33406 5.7
      vertex -14.378 -2.84479 5.7
      vertex -40.5 0.4 5.7
    endloop
  endfacet
  facet normal 0 0 1
    outer loop
      vertex -22.7 -2.4 5.7
      vertex -22.504 -2.39037 5.7
      vertex -40.5 0.4 5.7
    endloop
  endfacet
  facet normal 0 0 1
    outer loop
      vertex -22.504 -2.39037 5.7
      vertex -22.3098 -2.36157 5.7
      vertex -40.5 0.4 5.7
    endloop
  endfacet
  facet normal 0 0 1
    outer loop
      vertex -22.3098 -2.36157 5.7
      vertex -22.2 -2.33406 5.7
      vertex -40.5 0.4 5.7
    endloop
  endfacet
  facet normal 0 0 1
    outer loop
      vertex -10.4446 -8.1484 5.7
      vertex -11.2171 -7.5755 5.7
      vertex -22.2 -2.33406 5.7
    endloop
  endfacet
  facet normal 0 0 1
    outer loop
      vertex -22.2 -7.41 5.7
      vertex -22.1904 -7.59623 5.7
      vertex -22.2 -2.33406 5.7
    endloop
  endfacet
  facet normal 0 0 1
    outer loop
      vertex -22.1904 -7.59623 5.7
      vertex -22.1616 -7.78067 5.7
      vertex -22.2 -2.33406 5.7
    endloop
  endfacet
  facet normal 0 0 1
    outer loop
      vertex -22.1616 -7.78067 5.7
      vertex -22.1139 -7.96154 5.7
      vertex -22.2 -2.33406 5.7
    endloop
  endfacet
  facet normal 0 0 1
    outer loop
      vertex -22.1139 -7.96154 5.7
      vertex -22.0478 -8.1371 5.7
      vertex -22.2 -2.33406 5.7
    endloop
  endfacet
  facet normal 0 0 1
    outer loop
      vertex -22.0478 -8.1371 5.7
      vertex -21.9638 -8.30565 5.7
      vertex -22.2 -2.33406 5.7
    endloop
  endfacet
  facet normal 0 0 1
    outer loop
      vertex -21.9638 -8.30565 5.7
      vertex -21.8629 -8.46558 5.7
      vertex -22.2 -2.33406 5.7
    endloop
  endfacet
  facet normal 0 0 1
    outer loop
      vertex -21.8629 -8.46558 5.7
      vertex -21.746 -8.61535 5.7
      vertex -22.2 -2.33406 5.7
    endloop
  endfacet
  facet normal 0 0 1
    outer loop
      vertex -21.746 -8.61535 5.7
      vertex -21.6142 -8.7535 5.7
      vertex -22.2 -2.33406 5.7
    endloop
  endfacet
  facet normal 0 0 1
    outer loop
      vertex -21.6142 -8.7535 5.7
      vertex -21.4688 -8.87872 5.7
      vertex -22.2 -2.33406 5.7
    endloop
  endfacet
  facet normal 0 0 1
    outer loop
      vertex -21.4688 -8.87872 5.7
      vertex -21.3111 -8.98979 5.7
      vertex -22.2 -2.33406 5.7
    endloop
  endfacet
  facet normal 0 0 1
    outer loop
      vertex -21.3111 -8.98979 5.7
      vertex -21.1428 -9.08565 5.7
      vertex -22.2 -2.33406 5.7
    endloop
  endfacet
  facet normal 0 0 1
    outer loop
      vertex -21.1428 -9.08565 5.7
      vertex -20.9654 -9.16537 5.7
      vertex -22.2 -2.33406 5.7
    endloop
  endfacet
  facet normal 0 0 1
    outer loop
      vertex -20.9654 -9.16537 5.7
      vertex -20.7806 -9.22819 5.7
      vertex -22.2 -2.33406 5.7
    endloop
  endfacet
  facet normal 0 0 1
    outer loop
      vertex -20.7806 -9.22819 5.7
      vertex -20.5902 -9.27349 5.7
      vertex -22.2 -2.33406 5.7
    endloop
  endfacet
  facet normal 0 0 1
    outer loop
      vertex -20.5902 -9.27349 5.7
      vertex -20.396 -9.30085 5.7
      vertex -22.2 -2.33406 5.7
    endloop
  endfacet
  facet normal 0 0 1
    outer loop
      vertex -20.396 -9.30085 5.7
      vertex -20.2 -9.31 5.7
      vertex -22.2 -2.33406 5.7
    endloop
  endfacet
  facet normal 0 0 1
    outer loop
      vertex -20.2 -9.31 5.7
      vertex -10 -9.31 5.7
      vertex -22.2 -2.33406 5.7
    endloop
  endfacet
  facet normal 0 0 1
    outer loop
      vertex -10 -9.31 5.7
      vertex -10 -8.41488 5.7
      vertex -22.2 -2.33406 5.7
    endloop
  endfacet
  facet normal 0 0 1
    outer loop
      vertex -10 -8.41488 5.7
      vertex -10.4446 -8.1484 5.7
      vertex -22.2 -2.33406 5.7
    endloop
  endfacet
  facet normal 0 0 1
    outer loop
      vertex -11.2171 -7.5755 5.7
      vertex -11.9296 -6.92965 5.7
      vertex -22.2 -2.33406 5.7
    endloop
  endfacet
  facet normal 0 0 1
    outer loop
      vertex -11.9296 -6.92965 5.7
      vertex -12.5755 -6.21705 5.7
      vertex -22.2 -2.33406 5.7
    endloop
  endfacet
  facet normal 0 0 1
    outer loop
      vertex -12.5755 -6.21705 5.7
      vertex -13.1484 -5.44459 5.7
      vertex -22.2 -2.33406 5.7
    endloop
  endfacet
  facet normal 0 0 1
    outer loop
      vertex -13.1484 -5.44459 5.7
      vertex -13.6428 -4.61969 5.7
      vertex -22.2 -2.33406 5.7
    endloop
  endfacet
  facet normal 0 0 1
    outer loop
      vertex -13.6428 -4.61969 5.7
      vertex -14.054 -3.7503 5.7
      vertex -22.2 -2.33406 5.7
    endloop
  endfacet
  facet normal 0 0 1
    outer loop
      vertex -14.054 -3.7503 5.7
      vertex -14.378 -2.84479 5.7
      vertex -22.2 -2.33406 5.7
    endloop
  endfacet
  facet normal 0 0 1
    outer loop
      vertex -14.6117 -1.91188 5.7
      vertex -14.7528 -0.960568 5.7
      vertex -40.5 0.4 5.7
    endloop
  endfacet
  facet normal 0 0 1
    outer loop
      vertex -14.7528 -0.960568 5.7
      vertex -14.8 0 5.7
      vertex -40.5 0.4 5.7
    endloop
  endfacet
  facet normal 0 0 1
    outer loop
      vertex -14.378 -2.84479 5.7
      vertex -14.6117 -1.91188 5.7
      vertex -40.5 0.4 5.7
    endloop
  endfacet
  facet normal 0 0 1
    outer loop
      vertex -40.4904 0.596034 5.7
      vertex -39.9142 1.81421 5.7
      vertex -40.046 1.66879 5.7
    endloop
  endfacet
  facet normal 0 0 1
    outer loop
      vertex -40.4904 0.596034 5.7
      vertex -40.046 1.66879 5.7
      vertex -40.1629 1.51114 5.7
    endloop
  endfacet
  facet normal 0 0 1
    outer loop
      vertex -40.4904 0.596034 5.7
      vertex -40.1629 1.51114 5.7
      vertex -40.2638 1.34279 5.7
    endloop
  endfacet
  facet normal 0 0 1
    outer loop
      vertex -40.4904 0.596034 5.7
      vertex -40.3478 1.16537 5.7
      vertex -40.4139 0.980569 5.7
    endloop
  endfacet
  facet normal 0 0 1
    outer loop
      vertex -21.3111 8.98979 5.7
      vertex -21.4688 8.87872 5.7
      vertex -20.5902 9.27349 5.7
    endloop
  endfacet
  facet normal 0 0 1
    outer loop
      vertex -20.7806 9.22819 5.7
      vertex -20.9654 9.16537 5.7
      vertex -21.1428 9.08565 5.7
    endloop
  endfacet
  facet normal 0 0 1
    outer loop
      vertex -21.4688 8.87872 5.7
      vertex -21.6142 8.7535 5.7
      vertex -20.396 9.30085 5.7
    endloop
  endfacet
  facet normal 0 0 1
    outer loop
      vertex -20.5902 9.27349 5.7
      vertex -20.7806 9.22819 5.7
      vertex -21.3111 8.98979 5.7
    endloop
  endfacet
  facet normal 0 0 1
    outer loop
      vertex -21.6142 8.7535 5.7
      vertex -21.746 8.61535 5.7
      vertex -20.2 9.31 5.7
    endloop
  endfacet
  facet normal 0 0 1
    outer loop
      vertex -20.396 9.30085 5.7
      vertex -20.5902 9.27349 5.7
      vertex -21.4688 8.87872 5.7
    endloop
  endfacet
  facet normal 0 0 1
    outer loop
      vertex -40.4904 0.596034 5.7
      vertex -38.5 2.4 5.7
      vertex -38.696 2.39037 5.7
    endloop
  endfacet
  facet normal 0 0 1
    outer loop
      vertex -20.2 9.31 5.7
      vertex -20.396 9.30085 5.7
      vertex -21.6142 8.7535 5.7
    endloop
  endfacet
  facet normal 0 0 1
    outer loop
      vertex -40.4904 0.596034 5.7
      vertex -39.7688 1.94602 5.7
      vertex -39.9142 1.81421 5.7
    endloop
  endfacet
  facet normal 0 0 1
    outer loop
      vertex -10 9.31 5.7
      vertex -20.2 9.31 5.7
      vertex -21.746 8.61535 5.7
    endloop
  endfacet
  facet normal 0 0 1
    outer loop
      vertex -40.4904 0.596034 5.7
      vertex -39.6111 2.06294 5.7
      vertex -39.7688 1.94602 5.7
    endloop
  endfacet
  facet normal 0 0 1
    outer loop
      vertex -10 9.31 5.7
      vertex -21.746 8.61535 5.7
      vertex -21.8629 8.46558 5.7
    endloop
  endfacet
  facet normal 0 0 1
    outer loop
      vertex -40.4904 0.596034 5.7
      vertex -39.4428 2.16384 5.7
      vertex -39.6111 2.06294 5.7
    endloop
  endfacet
  facet normal 0 0 1
    outer loop
      vertex -10 9.31 5.7
      vertex -21.8629 8.46558 5.7
      vertex -21.9638 8.30565 5.7
    endloop
  endfacet
  facet normal 0 0 1
    outer loop
      vertex -40.4904 0.596034 5.7
      vertex -39.2654 2.24776 5.7
      vertex -39.4428 2.16384 5.7
    endloop
  endfacet
  facet normal 0 0 1
    outer loop
      vertex -10 9.31 5.7
      vertex -21.9638 8.30565 5.7
      vertex -22.0478 8.1371 5.7
    endloop
  endfacet
  facet normal 0 0 1
    outer loop
      vertex -40.4904 0.596034 5.7
      vertex -39.0806 2.31388 5.7
      vertex -39.2654 2.24776 5.7
    endloop
  endfacet
  facet normal 0 0 1
    outer loop
      vertex -10 9.31 5.7
      vertex -22.0478 8.1371 5.7
      vertex -22.1139 7.96154 5.7
    endloop
  endfacet
  facet normal 0 0 1
    outer loop
      vertex -40.4904 0.596034 5.7
      vertex -38.8902 2.36157 5.7
      vertex -39.0806 2.31388 5.7
    endloop
  endfacet
  facet normal 0 0 1
    outer loop
      vertex -10 9.31 5.7
      vertex -22.1139 7.96154 5.7
      vertex -22.1616 7.78067 5.7
    endloop
  endfacet
  facet normal 0 0 1
    outer loop
      vertex -40.4904 0.596034 5.7
      vertex -38.696 2.39037 5.7
      vertex -38.8902 2.36157 5.7
    endloop
  endfacet
  facet normal 0 0 1
    outer loop
      vertex -10 9.31 5.7
      vertex -22.1616 7.78067 5.7
      vertex -22.1904 7.59623 5.7
    endloop
  endfacet
  facet normal 0 0 1
    outer loop
      vertex -10 9.31 5.7
      vertex -22.1904 7.59623 5.7
      vertex -22.2 7.41 5.7
    endloop
  endfacet
  facet normal 0 0 1
    outer loop
      vertex -14.378 2.84479 5.7
      vertex -14.054 3.7503 5.7
      vertex -22.2 2.33406 5.7
    endloop
  endfacet
  facet normal 0 0 1
    outer loop
      vertex -40.4904 0.596034 5.7
      vertex -40.4139 0.980569 5.7
      vertex -40.4616 0.790181 5.7
    endloop
  endfacet
  facet normal 0 0 1
    outer loop
      vertex -14.8 0 5.7
      vertex -14.7528 0.960568 5.7
      vertex -40.5 0.4 5.7
    endloop
  endfacet
  facet normal 0 0 1
    outer loop
      vertex -40.4904 0.596034 5.7
      vertex -40.2638 1.34279 5.7
      vertex -40.3478 1.16537 5.7
    endloop
  endfacet
  facet normal 0 0 1
    outer loop
      vertex -21.1428 9.08565 5.7
      vertex -21.3111 8.98979 5.7
      vertex -20.7806 9.22819 5.7
    endloop
  endfacet
  facet normal 0 0 1
    outer loop
      vertex -22.2 7.41 5.7
      vertex -10 8.41488 5.7
      vertex -10 9.31 5.7
    endloop
  endfacet
  facet normal 0 0 1
    outer loop
      vertex -22.2 7.41 5.7
      vertex -10.4446 8.1484 5.7
      vertex -10 8.41488 5.7
    endloop
  endfacet
  facet normal 0 0 1
    outer loop
      vertex -22.2 7.41 5.7
      vertex -11.2171 7.5755 5.7
      vertex -10.4446 8.1484 5.7
    endloop
  endfacet
  facet normal 0 0 1
    outer loop
      vertex -22.2 7.41 5.7
      vertex -11.9296 6.92965 5.7
      vertex -11.2171 7.5755 5.7
    endloop
  endfacet
  facet normal 0 0 1
    outer loop
      vertex -22.2 7.41 5.7
      vertex -12.5755 6.21705 5.7
      vertex -11.9296 6.92965 5.7
    endloop
  endfacet
  facet normal 0 0 1
    outer loop
      vertex -22.2 7.41 5.7
      vertex -13.1484 5.44459 5.7
      vertex -12.5755 6.21705 5.7
    endloop
  endfacet
  facet normal 0 0 1
    outer loop
      vertex -22.2 7.41 5.7
      vertex -13.6428 4.61969 5.7
      vertex -13.1484 5.44459 5.7
    endloop
  endfacet
  facet normal 0 0 1
    outer loop
      vertex -22.2 7.41 5.7
      vertex -14.054 3.7503 5.7
      vertex -13.6428 4.61969 5.7
    endloop
  endfacet
  facet normal 0 0 1
    outer loop
      vertex -22.2 7.41 5.7
      vertex -22.2 2.33406 5.7
      vertex -14.054 3.7503 5.7
    endloop
  endfacet
  facet normal 0 0 1
    outer loop
      vertex -40.4904 0.596034 5.7
      vertex -22.7 2.4 5.7
      vertex -38.5 2.4 5.7
    endloop
  endfacet
  facet normal 0 0 1
    outer loop
      vertex -40.4904 0.596034 5.7
      vertex -22.504 2.39037 5.7
      vertex -22.7 2.4 5.7
    endloop
  endfacet
  facet normal 0 0 1
    outer loop
      vertex -40.4904 0.596034 5.7
      vertex -22.3098 2.36157 5.7
      vertex -22.504 2.39037 5.7
    endloop
  endfacet
  facet normal 0 0 1
    outer loop
      vertex -40.4904 0.596034 5.7
      vertex -22.2 2.33406 5.7
      vertex -22.3098 2.36157 5.7
    endloop
  endfacet
  facet normal 0 0 1
    outer loop
      vertex -40.4904 0.596034 5.7
      vertex -14.378 2.84479 5.7
      vertex -22.2 2.33406 5.7
    endloop
  endfacet
  facet normal 0 0 1
    outer loop
      vertex -40.4904 0.596034 5.7
      vertex -14.6117 1.91188 5.7
      vertex -14.378 2.84479 5.7
    endloop
  endfacet
  facet normal 0 0 1
    outer loop
      vertex -40.4904 0.596034 5.7
      vertex -14.7528 0.960568 5.7
      vertex -14.6117 1.91188 5.7
    endloop
  endfacet
  facet normal 0 0 1
    outer loop
      vertex -40.4904 0.596034 5.7
      vertex -40.5 0.4 5.7
      vertex -14.7528 0.960568 5.7
    endloop
  endfacet
  facet normal -0.998795 -0.04907 0
    outer loop
      vertex -40.5 -0.4 0
      vertex -40.4904 -0.596034 0
      vertex -40.5 -0.4 5.7
    endloop
  endfacet
  facet normal -0.998795 -0.04907 0
    outer loop
      vertex -40.5 -0.4 5.7
      vertex -40.4904 -0.596034 0
      vertex -40.4904 -0.596034 5.7
    endloop
  endfacet
  facet normal -0.989177 -0.146726 0
    outer loop
      vertex -40.4904 -0.596034 0
      vertex -40.4616 -0.790181 0
      vertex -40.4904 -0.596034 5.7
    endloop
  endfacet
  facet normal -0.989177 -0.146726 0
    outer loop
      vertex -40.4904 -0.596034 5.7
      vertex -40.4616 -0.790181 0
      vertex -40.4616 -0.790181 5.7
    endloop
  endfacet
  facet normal -0.970031 -0.242982 0
    outer loop
      vertex -40.4616 -0.790181 0
      vertex -40.4139 -0.980569 0
      vertex -40.4616 -0.790181 5.7
    endloop
  endfacet
  facet normal -0.970031 -0.242982 0
    outer loop
      vertex -40.4616 -0.790181 5.7
      vertex -40.4139 -0.980569 0
      vertex -40.4139 -0.980569 5.7
    endloop
  endfacet
  facet normal -0.941544 -0.336891 0
    outer loop
      vertex -40.4139 -0.980569 0
      vertex -40.3478 -1.16537 0
      vertex -40.4139 -0.980569 5.7
    endloop
  endfacet
  facet normal -0.941544 -0.336891 0
    outer loop
      vertex -40.4139 -0.980569 5.7
      vertex -40.3478 -1.16537 0
      vertex -40.3478 -1.16537 5.7
    endloop
  endfacet
  facet normal -0.90399 -0.427554 0
    outer loop
      vertex -40.3478 -1.16537 0
      vertex -40.2638 -1.34279 0
      vertex -40.3478 -1.16537 5.7
    endloop
  endfacet
  facet normal -0.90399 -0.427554 0
    outer loop
      vertex -40.3478 -1.16537 5.7
      vertex -40.2638 -1.34279 0
      vertex -40.2638 -1.34279 5.7
    endloop
  endfacet
  facet normal -0.857727 -0.514105 0
    outer loop
      vertex -40.2638 -1.34279 0
      vertex -40.1629 -1.51114 0
      vertex -40.2638 -1.34279 5.7
    endloop
  endfacet
  facet normal -0.857727 -0.514105 0
    outer loop
      vertex -40.2638 -1.34279 5.7
      vertex -40.1629 -1.51114 0
      vertex -40.1629 -1.51114 5.7
    endloop
  endfacet
  facet normal -0.80321 -0.595696 0
    outer loop
      vertex -40.1629 -1.51114 0
      vertex -40.046 -1.66879 0
      vertex -40.1629 -1.51114 5.7
    endloop
  endfacet
  facet normal -0.80321 -0.595696 0
    outer loop
      vertex -40.1629 -1.51114 5.7
      vertex -40.046 -1.66879 0
      vertex -40.046 -1.66879 5.7
    endloop
  endfacet
  facet normal -0.740952 -0.671558 0
    outer loop
      vertex -40.046 -1.66879 0
      vertex -39.9142 -1.81421 0
      vertex -40.046 -1.66879 5.7
    endloop
  endfacet
  facet normal -0.740952 -0.671558 0
    outer loop
      vertex -40.046 -1.66879 5.7
      vertex -39.9142 -1.81421 0
      vertex -39.9142 -1.81421 5.7
    endloop
  endfacet
  facet normal -0.671558 -0.740952 0
    outer loop
      vertex -39.9142 -1.81421 5.7
      vertex -39.9142 -1.81421 0
      vertex -39.7688 -1.94602 0
    endloop
  endfacet
  facet normal -0.671558 -0.740952 0
    outer loop
      vertex -39.7688 -1.94602 5.7
      vertex -39.9142 -1.81421 5.7
      vertex -39.7688 -1.94602 0
    endloop
  endfacet
  facet normal -0.595696 -0.80321 0
    outer loop
      vertex -39.7688 -1.94602 5.7
      vertex -39.7688 -1.94602 0
      vertex -39.6111 -2.06294 0
    endloop
  endfacet
  facet normal -0.595696 -0.80321 0
    outer loop
      vertex -39.6111 -2.06294 5.7
      vertex -39.7688 -1.94602 5.7
      vertex -39.6111 -2.06294 0
    endloop
  endfacet
  facet normal -0.514105 -0.857727 0
    outer loop
      vertex -39.6111 -2.06294 5.7
      vertex -39.6111 -2.06294 0
      vertex -39.4428 -2.16384 0
    endloop
  endfacet
  facet normal -0.514105 -0.857727 0
    outer loop
      vertex -39.4428 -2.16384 5.7
      vertex -39.6111 -2.06294 5.7
      vertex -39.4428 -2.16384 0
    endloop
  endfacet
  facet normal -0.427554 -0.90399 0
    outer loop
      vertex -39.4428 -2.16384 5.7
      vertex -39.4428 -2.16384 0
      vertex -39.2654 -2.24776 0
    endloop
  endfacet
  facet normal -0.427554 -0.90399 0
    outer loop
      vertex -39.2654 -2.24776 5.7
      vertex -39.4428 -2.16384 5.7
      vertex -39.2654 -2.24776 0
    endloop
  endfacet
  facet normal -0.336891 -0.941544 0
    outer loop
      vertex -39.2654 -2.24776 5.7
      vertex -39.2654 -2.24776 0
      vertex -39.0806 -2.31388 0
    endloop
  endfacet
  facet normal -0.336891 -0.941544 0
    outer loop
      vertex -39.0806 -2.31388 5.7
      vertex -39.2654 -2.24776 5.7
      vertex -39.0806 -2.31388 0
    endloop
  endfacet
  facet normal -0.242982 -0.970031 0
    outer loop
      vertex -39.0806 -2.31388 5.7
      vertex -39.0806 -2.31388 0
      vertex -38.8902 -2.36157 0
    endloop
  endfacet
  facet normal -0.242982 -0.970031 0
    outer loop
      vertex -38.8902 -2.36157 5.7
      vertex -39.0806 -2.31388 5.7
      vertex -38.8902 -2.36157 0
    endloop
  endfacet
  facet normal -0.146726 -0.989177 0
    outer loop
      vertex -38.8902 -2.36157 5.7
      vertex -38.8902 -2.36157 0
      vertex -38.696 -2.39037 0
    endloop
  endfacet
  facet normal -0.146726 -0.989177 0
    outer loop
      vertex -38.696 -2.39037 5.7
      vertex -38.8902 -2.36157 5.7
      vertex -38.696 -2.39037 0
    endloop
  endfacet
  facet normal -0.04907 -0.998795 0
    outer loop
      vertex -38.696 -2.39037 5.7
      vertex -38.696 -2.39037 0
      vertex -38.5 -2.4 0
    endloop
  endfacet
  facet normal -0.04907 -0.998795 0
    outer loop
      vertex -38.5 -2.4 5.7
      vertex -38.696 -2.39037 5.7
      vertex -38.5 -2.4 0
    endloop
  endfacet
  facet normal 0 -1 0
    outer loop
      vertex -38.5 -2.4 5.7
      vertex -38.5 -2.4 0
      vertex -22.7 -2.4 0
    endloop
  endfacet
  facet normal 0 -1 0
    outer loop
      vertex -22.7 -2.4 5.7
      vertex -38.5 -2.4 5.7
      vertex -22.7 -2.4 0
    endloop
  endfacet
  facet normal 0.04907 -0.998795 0
    outer loop
      vertex -22.7 -2.4 5.7
      vertex -22.7 -2.4 0
      vertex -22.504 -2.39037 0
    endloop
  endfacet
  facet normal 0.04907 -0.998795 0
    outer loop
      vertex -22.504 -2.39037 5.7
      vertex -22.7 -2.4 5.7
      vertex -22.504 -2.39037 0
    endloop
  endfacet
  facet normal 0.146726 -0.989177 0
    outer loop
      vertex -22.504 -2.39037 5.7
      vertex -22.504 -2.39037 0
      vertex -22.3098 -2.36157 0
    endloop
  endfacet
  facet normal 0.146726 -0.989177 0
    outer loop
      vertex -22.3098 -2.36157 5.7
      vertex -22.504 -2.39037 5.7
      vertex -22.3098 -2.36157 0
    endloop
  endfacet
  facet normal 0.242982 -0.970031 0
    outer loop
      vertex -22.3098 -2.36157 5.7
      vertex -22.3098 -2.36157 0
      vertex -22.2 -2.33406 0
    endloop
  endfacet
  facet normal 0.242982 -0.970031 0
    outer loop
      vertex -22.2 -2.33406 5.7
      vertex -22.3098 -2.36157 5.7
      vertex -22.2 -2.33406 0
    endloop
  endfacet
  facet normal -1 0 0
    outer loop
      vertex -22.2 -7.41 0
      vertex -22.2 -7.41 5.7
      vertex -22.2 -2.33406 0
    endloop
  endfacet
  facet normal -1 0 0
    outer loop
      vertex -22.2 -2.33406 0
      vertex -22.2 -7.41 5.7
      vertex -22.2 -2.33406 5.7
    endloop
  endfacet
  facet normal -0.998665 -0.051646 0
    outer loop
      vertex -22.2 -7.41 0
      vertex -22.1904 -7.59623 0
      vertex -22.2 -7.41 5.7
    endloop
  endfacet
  facet normal -0.998665 -0.051646 0
    outer loop
      vertex -22.2 -7.41 5.7
      vertex -22.1904 -7.59623 0
      vertex -22.1904 -7.59623 5.7
    endloop
  endfacet
  facet normal -0.988029 -0.154269 0
    outer loop
      vertex -22.1904 -7.59623 0
      vertex -22.1616 -7.78067 0
      vertex -22.1904 -7.59623 5.7
    endloop
  endfacet
  facet normal -0.988029 -0.154269 0
    outer loop
      vertex -22.1904 -7.59623 5.7
      vertex -22.1616 -7.78067 0
      vertex -22.1616 -7.78067 5.7
    endloop
  endfacet
  facet normal -0.966952 -0.254958 0
    outer loop
      vertex -22.1616 -7.78067 0
      vertex -22.1139 -7.96154 0
      vertex -22.1616 -7.78067 5.7
    endloop
  endfacet
  facet normal -0.966952 -0.254958 0
    outer loop
      vertex -22.1616 -7.78067 5.7
      vertex -22.1139 -7.96154 0
      vertex -22.1139 -7.96154 5.7
    endloop
  endfacet
  facet normal -0.935824 -0.352468 0
    outer loop
      vertex -22.1139 -7.96154 0
      vertex -22.0478 -8.1371 0
      vertex -22.1139 -7.96154 5.7
    endloop
  endfacet
  facet normal -0.935824 -0.352468 0
    outer loop
      vertex -22.1139 -7.96154 5.7
      vertex -22.0478 -8.1371 0
      vertex -22.0478 -8.1371 5.7
    endloop
  endfacet
  facet normal -0.895194 -0.445678 0
    outer loop
      vertex -22.0478 -8.1371 0
      vertex -21.9638 -8.30565 0
      vertex -22.0478 -8.1371 5.7
    endloop
  endfacet
  facet normal -0.895194 -0.445678 0
    outer loop
      vertex -22.0478 -8.1371 5.7
      vertex -21.9638 -8.30565 0
      vertex -21.9638 -8.30565 5.7
    endloop
  endfacet
  facet normal -0.845738 -0.533599 0
    outer loop
      vertex -21.9638 -8.30565 0
      vertex -21.8629 -8.46558 0
      vertex -21.9638 -8.30565 5.7
    endloop
  endfacet
  facet normal -0.845738 -0.533599 0
    outer loop
      vertex -21.9638 -8.30565 5.7
      vertex -21.8629 -8.46558 0
      vertex -21.8629 -8.46558 5.7
    endloop
  endfacet
  facet normal -0.788243 -0.615364 0
    outer loop
      vertex -21.8629 -8.46558 0
      vertex -21.746 -8.61535 0
      vertex -21.8629 -8.46558 5.7
    endloop
  endfacet
  facet normal -0.788243 -0.615364 0
    outer loop
      vertex -21.8629 -8.46558 5.7
      vertex -21.746 -8.61535 0
      vertex -21.746 -8.61535 5.7
    endloop
  endfacet
  facet normal -0.723536 -0.690287 0
    outer loop
      vertex -21.746 -8.61535 0
      vertex -21.6142 -8.7535 0
      vertex -21.746 -8.61535 5.7
    endloop
  endfacet
  facet normal -0.723536 -0.690287 0
    outer loop
      vertex -21.746 -8.61535 5.7
      vertex -21.6142 -8.7535 0
      vertex -21.6142 -8.7535 5.7
    endloop
  endfacet
  facet normal -0.652487 -0.7578 0
    outer loop
      vertex -21.6142 -8.7535 5.7
      vertex -21.6142 -8.7535 0
      vertex -21.4688 -8.87872 0
    endloop
  endfacet
  facet normal -0.652487 -0.7578 0
    outer loop
      vertex -21.4688 -8.87872 5.7
      vertex -21.6142 -8.7535 5.7
      vertex -21.4688 -8.87872 0
    endloop
  endfacet
  facet normal -0.575963 -0.817476 0
    outer loop
      vertex -21.4688 -8.87872 5.7
      vertex -21.4688 -8.87872 0
      vertex -21.3111 -8.98979 0
    endloop
  endfacet
  facet normal -0.575963 -0.817476 0
    outer loop
      vertex -21.3111 -8.98979 5.7
      vertex -21.4688 -8.87872 5.7
      vertex -21.3111 -8.98979 0
    endloop
  endfacet
  facet normal -0.494817 -0.868997 0
    outer loop
      vertex -21.3111 -8.98979 5.7
      vertex -21.3111 -8.98979 0
      vertex -21.1428 -9.08565 0
    endloop
  endfacet
  facet normal -0.494817 -0.868997 0
    outer loop
      vertex -21.1428 -9.08565 5.7
      vertex -21.3111 -8.98979 5.7
      vertex -21.1428 -9.08565 0
    endloop
  endfacet
  facet normal -0.409845 -0.912155 0
    outer loop
      vertex -21.1428 -9.08565 5.7
      vertex -21.1428 -9.08565 0
      vertex -20.9654 -9.16537 0
    endloop
  endfacet
  facet normal -0.409845 -0.912155 0
    outer loop
      vertex -20.9654 -9.16537 5.7
      vertex -21.1428 -9.08565 5.7
      vertex -20.9654 -9.16537 0
    endloop
  endfacet
  facet normal -0.321832 -0.946797 0
    outer loop
      vertex -20.9654 -9.16537 5.7
      vertex -20.9654 -9.16537 0
      vertex -20.7806 -9.22819 0
    endloop
  endfacet
  facet normal -0.321832 -0.946797 0
    outer loop
      vertex -20.7806 -9.22819 5.7
      vertex -20.9654 -9.16537 5.7
      vertex -20.7806 -9.22819 0
    endloop
  endfacet
  facet normal -0.2315 -0.972835 0
    outer loop
      vertex -20.7806 -9.22819 5.7
      vertex -20.7806 -9.22819 0
      vertex -20.5902 -9.27349 0
    endloop
  endfacet
  facet normal -0.2315 -0.972835 0
    outer loop
      vertex -20.5902 -9.27349 5.7
      vertex -20.7806 -9.22819 5.7
      vertex -20.5902 -9.27349 0
    endloop
  endfacet
  facet normal -0.139536 -0.990217 0
    outer loop
      vertex -20.5902 -9.27349 5.7
      vertex -20.5902 -9.27349 0
      vertex -20.396 -9.30085 0
    endloop
  endfacet
  facet normal -0.139536 -0.990217 0
    outer loop
      vertex -20.396 -9.30085 5.7
      vertex -20.5902 -9.27349 5.7
      vertex -20.396 -9.30085 0
    endloop
  endfacet
  facet normal -0.046622 -0.998913 0
    outer loop
      vertex -20.396 -9.30085 5.7
      vertex -20.396 -9.30085 0
      vertex -20.2 -9.31 0
    endloop
  endfacet
  facet normal -0.046622 -0.998913 0
    outer loop
      vertex -20.2 -9.31 5.7
      vertex -20.396 -9.30085 5.7
      vertex -20.2 -9.31 0
    endloop
  endfacet
  facet normal 0 -1 0
    outer loop
      vertex -20.2 -9.31 5.7
      vertex -20.2 -9.31 0
      vertex -10 -9.31 0
    endloop
  endfacet
  facet normal 0 -1 0
    outer loop
      vertex -10 -9.31 5.7
      vertex -20.2 -9.31 5.7
      vertex -10 -9.31 0
    endloop
  endfacet
  facet normal 1 0 0
    outer loop
      vertex -10 -8.41488 0
      vertex -10 -8.41488 5.7
      vertex -10 -9.31 5.7
    endloop
  endfacet
  facet normal 1 0 0
    outer loop
      vertex -10 -9.31 0
      vertex -10 -8.41488 0
      vertex -10 -9.31 5.7
    endloop
  endfacet
  facet normal 0.514103 0.857729 0
    outer loop
      vertex -10 -8.41488 5.7
      vertex -10 -8.41488 0
      vertex -10.4446 -8.1484 5.7
    endloop
  endfacet
  facet normal 0.514103 0.857729 0
    outer loop
      vertex -10.4446 -8.1484 5.7
      vertex -10 -8.41488 0
      vertex -10.4446 -8.1484 0
    endloop
  endfacet
  facet normal 0.595699 0.803207 0
    outer loop
      vertex -10.4446 -8.1484 5.7
      vertex -10.4446 -8.1484 0
      vertex -11.2171 -7.5755 5.7
    endloop
  endfacet
  facet normal 0.595699 0.803207 0
    outer loop
      vertex -11.2171 -7.5755 5.7
      vertex -10.4446 -8.1484 0
      vertex -11.2171 -7.5755 0
    endloop
  endfacet
  facet normal 0.671559 0.740951 0
    outer loop
      vertex -11.2171 -7.5755 5.7
      vertex -11.2171 -7.5755 0
      vertex -11.9296 -6.92965 5.7
    endloop
  endfacet
  facet normal 0.671559 0.740951 0
    outer loop
      vertex -11.9296 -6.92965 5.7
      vertex -11.2171 -7.5755 0
      vertex -11.9296 -6.92965 0
    endloop
  endfacet
  facet normal 0.740951 0.671559 0
    outer loop
      vertex -12.5755 -6.21705 5.7
      vertex -11.9296 -6.92965 5.7
      vertex -11.9296 -6.92965 0
    endloop
  endfacet
  facet normal 0.740951 0.671559 0
    outer loop
      vertex -12.5755 -6.21705 0
      vertex -12.5755 -6.21705 5.7
      vertex -11.9296 -6.92965 0
    endloop
  endfacet
  facet normal 0.803207 0.595699 0
    outer loop
      vertex -13.1484 -5.44459 5.7
      vertex -12.5755 -6.21705 5.7
      vertex -12.5755 -6.21705 0
    endloop
  endfacet
  facet normal 0.803207 0.595699 0
    outer loop
      vertex -13.1484 -5.44459 0
      vertex -13.1484 -5.44459 5.7
      vertex -12.5755 -6.21705 0
    endloop
  endfacet
  facet normal 0.857729 0.514103 0
    outer loop
      vertex -13.6428 -4.61969 5.7
      vertex -13.1484 -5.44459 5.7
      vertex -13.1484 -5.44459 0
    endloop
  endfacet
  facet normal 0.857729 0.514103 0
    outer loop
      vertex -13.6428 -4.61969 0
      vertex -13.6428 -4.61969 5.7
      vertex -13.1484 -5.44459 0
    endloop
  endfacet
  facet normal 0.903989 0.427555 0
    outer loop
      vertex -14.054 -3.7503 5.7
      vertex -13.6428 -4.61969 5.7
      vertex -13.6428 -4.61969 0
    endloop
  endfacet
  facet normal 0.903989 0.427555 0
    outer loop
      vertex -14.054 -3.7503 0
      vertex -14.054 -3.7503 5.7
      vertex -13.6428 -4.61969 0
    endloop
  endfacet
  facet normal 0.941544 0.33689 0
    outer loop
      vertex -14.378 -2.84479 5.7
      vertex -14.054 -3.7503 5.7
      vertex -14.054 -3.7503 0
    endloop
  endfacet
  facet normal 0.941544 0.33689 0
    outer loop
      vertex -14.378 -2.84479 0
      vertex -14.378 -2.84479 5.7
      vertex -14.054 -3.7503 0
    endloop
  endfacet
  facet normal 0.970031 0.242981 0
    outer loop
      vertex -14.6117 -1.91188 5.7
      vertex -14.378 -2.84479 5.7
      vertex -14.378 -2.84479 0
    endloop
  endfacet
  facet normal 0.970031 0.242981 0
    outer loop
      vertex -14.6117 -1.91188 0
      vertex -14.6117 -1.91188 5.7
      vertex -14.378 -2.84479 0
    endloop
  endfacet
  facet normal 0.989177 0.14673 0
    outer loop
      vertex -14.7528 -0.960568 5.7
      vertex -14.6117 -1.91188 5.7
      vertex -14.6117 -1.91188 0
    endloop
  endfacet
  facet normal 0.989177 0.14673 0
    outer loop
      vertex -14.7528 -0.960568 0
      vertex -14.7528 -0.960568 5.7
      vertex -14.6117 -1.91188 0
    endloop
  endfacet
  facet normal 0.998795 0.049068 0
    outer loop
      vertex -14.8 0 5.7
      vertex -14.7528 -0.960568 5.7
      vertex -14.7528 -0.960568 0
    endloop
  endfacet
  facet normal 0.998795 0.049068 0
    outer loop
      vertex -14.8 0 0
      vertex -14.8 0 5.7
      vertex -14.7528 -0.960568 0
    endloop
  endfacet
  facet normal 0.998795 -0.049068 0
    outer loop
      vertex -14.7528 0.960568 0
      vertex -14.7528 0.960568 5.7
      vertex -14.8 0 5.7
    endloop
  endfacet
  facet normal 0.998795 -0.049068 0
    outer loop
      vertex -14.8 0 0
      vertex -14.7528 0.960568 0
      vertex -14.8 0 5.7
    endloop
  endfacet
  facet normal 0.989177 -0.14673 0
    outer loop
      vertex -14.6117 1.91188 0
      vertex -14.6117 1.91188 5.7
      vertex -14.7528 0.960568 5.7
    endloop
  endfacet
  facet normal 0.989177 -0.14673 0
    outer loop
      vertex -14.7528 0.960568 0
      vertex -14.6117 1.91188 0
      vertex -14.7528 0.960568 5.7
    endloop
  endfacet
  facet normal 0.970031 -0.242981 0
    outer loop
      vertex -14.378 2.84479 0
      vertex -14.378 2.84479 5.7
      vertex -14.6117 1.91188 5.7
    endloop
  endfacet
  facet normal 0.970031 -0.242981 0
    outer loop
      vertex -14.6117 1.91188 0
      vertex -14.378 2.84479 0
      vertex -14.6117 1.91188 5.7
    endloop
  endfacet
  facet normal 0.941544 -0.33689 0
    outer loop
      vertex -14.054 3.7503 0
      vertex -14.054 3.7503 5.7
      vertex -14.378 2.84479 5.7
    endloop
  endfacet
  facet normal 0.941544 -0.33689 0
    outer loop
      vertex -14.378 2.84479 0
      vertex -14.054 3.7503 0
      vertex -14.378 2.84479 5.7
    endloop
  endfacet
  facet normal 0.903989 -0.427555 0
    outer loop
      vertex -13.6428 4.61969 0
      vertex -13.6428 4.61969 5.7
      vertex -14.054 3.7503 5.7
    endloop
  endfacet
  facet normal 0.903989 -0.427555 0
    outer loop
      vertex -14.054 3.7503 0
      vertex -13.6428 4.61969 0
      vertex -14.054 3.7503 5.7
    endloop
  endfacet
  facet normal 0.857729 -0.514103 0
    outer loop
      vertex -13.1484 5.44459 0
      vertex -13.1484 5.44459 5.7
      vertex -13.6428 4.61969 5.7
    endloop
  endfacet
  facet normal 0.857729 -0.514103 0
    outer loop
      vertex -13.6428 4.61969 0
      vertex -13.1484 5.44459 0
      vertex -13.6428 4.61969 5.7
    endloop
  endfacet
  facet normal 0.803207 -0.595699 0
    outer loop
      vertex -12.5755 6.21705 0
      vertex -12.5755 6.21705 5.7
      vertex -13.1484 5.44459 5.7
    endloop
  endfacet
  facet normal 0.803207 -0.595699 0
    outer loop
      vertex -13.1484 5.44459 0
      vertex -12.5755 6.21705 0
      vertex -13.1484 5.44459 5.7
    endloop
  endfacet
  facet normal 0.740951 -0.671559 0
    outer loop
      vertex -11.9296 6.92965 0
      vertex -11.9296 6.92965 5.7
      vertex -12.5755 6.21705 5.7
    endloop
  endfacet
  facet normal 0.740951 -0.671559 0
    outer loop
      vertex -12.5755 6.21705 0
      vertex -11.9296 6.92965 0
      vertex -12.5755 6.21705 5.7
    endloop
  endfacet
  facet normal 0.671559 -0.740951 0
    outer loop
      vertex -11.2171 7.5755 0
      vertex -11.2171 7.5755 5.7
      vertex -11.9296 6.92965 5.7
    endloop
  endfacet
  facet normal 0.671559 -0.740951 0
    outer loop
      vertex -11.9296 6.92965 0
      vertex -11.2171 7.5755 0
      vertex -11.9296 6.92965 5.7
    endloop
  endfacet
  facet normal 0.595699 -0.803207 0
    outer loop
      vertex -10.4446 8.1484 0
      vertex -10.4446 8.1484 5.7
      vertex -11.2171 7.5755 5.7
    endloop
  endfacet
  facet normal 0.595699 -0.803207 0
    outer loop
      vertex -11.2171 7.5755 0
      vertex -10.4446 8.1484 0
      vertex -11.2171 7.5755 5.7
    endloop
  endfacet
  facet normal 0.514103 -0.857729 0
    outer loop
      vertex -10 8.41488 0
      vertex -10 8.41488 5.7
      vertex -10.4446 8.1484 5.7
    endloop
  endfacet
  facet normal 0.514103 -0.857729 0
    outer loop
      vertex -10.4446 8.1484 0
      vertex -10 8.41488 0
      vertex -10.4446 8.1484 5.7
    endloop
  endfacet
  facet normal 1 0 0
    outer loop
      vertex -10 9.31 0
      vertex -10 9.31 5.7
      vertex -10 8.41488 5.7
    endloop
  endfacet
  facet normal 1 0 0
    outer loop
      vertex -10 8.41488 0
      vertex -10 9.31 0
      vertex -10 8.41488 5.7
    endloop
  endfacet
  facet normal 0 1 0
    outer loop
      vertex -20.2 9.31 0
      vertex -20.2 9.31 5.7
      vertex -10 9.31 0
    endloop
  endfacet
  facet normal 0 1 0
    outer loop
      vertex -10 9.31 0
      vertex -20.2 9.31 5.7
      vertex -10 9.31 5.7
    endloop
  endfacet
  facet normal -0.046622 0.998913 0
    outer loop
      vertex -20.396 9.30085 0
      vertex -20.396 9.30085 5.7
      vertex -20.2 9.31 0
    endloop
  endfacet
  facet normal -0.046622 0.998913 0
    outer loop
      vertex -20.2 9.31 0
      vertex -20.396 9.30085 5.7
      vertex -20.2 9.31 5.7
    endloop
  endfacet
  facet normal -0.139536 0.990217 0
    outer loop
      vertex -20.5902 9.27349 0
      vertex -20.5902 9.27349 5.7
      vertex -20.396 9.30085 0
    endloop
  endfacet
  facet normal -0.139536 0.990217 0
    outer loop
      vertex -20.396 9.30085 0
      vertex -20.5902 9.27349 5.7
      vertex -20.396 9.30085 5.7
    endloop
  endfacet
  facet normal -0.2315 0.972835 0
    outer loop
      vertex -20.7806 9.22819 0
      vertex -20.7806 9.22819 5.7
      vertex -20.5902 9.27349 0
    endloop
  endfacet
  facet normal -0.2315 0.972835 0
    outer loop
      vertex -20.5902 9.27349 0
      vertex -20.7806 9.22819 5.7
      vertex -20.5902 9.27349 5.7
    endloop
  endfacet
  facet normal -0.321832 0.946797 0
    outer loop
      vertex -20.9654 9.16537 0
      vertex -20.9654 9.16537 5.7
      vertex -20.7806 9.22819 0
    endloop
  endfacet
  facet normal -0.321832 0.946797 0
    outer loop
      vertex -20.7806 9.22819 0
      vertex -20.9654 9.16537 5.7
      vertex -20.7806 9.22819 5.7
    endloop
  endfacet
  facet normal -0.409845 0.912155 0
    outer loop
      vertex -21.1428 9.08565 0
      vertex -21.1428 9.08565 5.7
      vertex -20.9654 9.16537 0
    endloop
  endfacet
  facet normal -0.409845 0.912155 0
    outer loop
      vertex -20.9654 9.16537 0
      vertex -21.1428 9.08565 5.7
      vertex -20.9654 9.16537 5.7
    endloop
  endfacet
  facet normal -0.494817 0.868997 0
    outer loop
      vertex -21.3111 8.98979 0
      vertex -21.3111 8.98979 5.7
      vertex -21.1428 9.08565 0
    endloop
  endfacet
  facet normal -0.494817 0.868997 0
    outer loop
      vertex -21.1428 9.08565 0
      vertex -21.3111 8.98979 5.7
      vertex -21.1428 9.08565 5.7
    endloop
  endfacet
  facet normal -0.575963 0.817476 0
    outer loop
      vertex -21.4688 8.87872 0
      vertex -21.4688 8.87872 5.7
      vertex -21.3111 8.98979 0
    endloop
  endfacet
  facet normal -0.575963 0.817476 0
    outer loop
      vertex -21.3111 8.98979 0
      vertex -21.4688 8.87872 5.7
      vertex -21.3111 8.98979 5.7
    endloop
  endfacet
  facet normal -0.652487 0.7578 0
    outer loop
      vertex -21.6142 8.7535 0
      vertex -21.6142 8.7535 5.7
      vertex -21.4688 8.87872 0
    endloop
  endfacet
  facet normal -0.652487 0.7578 0
    outer loop
      vertex -21.4688 8.87872 0
      vertex -21.6142 8.7535 5.7
      vertex -21.4688 8.87872 5.7
    endloop
  endfacet
  facet normal -0.723536 0.690287 0
    outer loop
      vertex -21.746 8.61535 0
      vertex -21.746 8.61535 5.7
      vertex -21.6142 8.7535 0
    endloop
  endfacet
  facet normal -0.723536 0.690287 0
    outer loop
      vertex -21.6142 8.7535 0
      vertex -21.746 8.61535 5.7
      vertex -21.6142 8.7535 5.7
    endloop
  endfacet
  facet normal -0.788243 0.615364 0
    outer loop
      vertex -21.8629 8.46558 0
      vertex -21.8629 8.46558 5.7
      vertex -21.746 8.61535 0
    endloop
  endfacet
  facet normal -0.788243 0.615364 0
    outer loop
      vertex -21.746 8.61535 0
      vertex -21.8629 8.46558 5.7
      vertex -21.746 8.61535 5.7
    endloop
  endfacet
  facet normal -0.845738 0.533599 0
    outer loop
      vertex -21.9638 8.30565 0
      vertex -21.9638 8.30565 5.7
      vertex -21.8629 8.46558 0
    endloop
  endfacet
  facet normal -0.845738 0.533599 0
    outer loop
      vertex -21.8629 8.46558 0
      vertex -21.9638 8.30565 5.7
      vertex -21.8629 8.46558 5.7
    endloop
  endfacet
  facet normal -0.895194 0.445678 0
    outer loop
      vertex -22.0478 8.1371 0
      vertex -22.0478 8.1371 5.7
      vertex -21.9638 8.30565 0
    endloop
  endfacet
  facet normal -0.895194 0.445678 0
    outer loop
      vertex -21.9638 8.30565 0
      vertex -22.0478 8.1371 5.7
      vertex -21.9638 8.30565 5.7
    endloop
  endfacet
  facet normal -0.935824 0.352468 0
    outer loop
      vertex -22.1139 7.96154 0
      vertex -22.1139 7.96154 5.7
      vertex -22.0478 8.1371 0
    endloop
  endfacet
  facet normal -0.935824 0.352468 0
    outer loop
      vertex -22.0478 8.1371 0
      vertex -22.1139 7.96154 5.7
      vertex -22.0478 8.1371 5.7
    endloop
  endfacet
  facet normal -0.966952 0.254958 0
    outer loop
      vertex -22.1616 7.78067 0
      vertex -22.1616 7.78067 5.7
      vertex -22.1139 7.96154 0
    endloop
  endfacet
  facet normal -0.966952 0.254958 0
    outer loop
      vertex -22.1139 7.96154 0
      vertex -22.1616 7.78067 5.7
      vertex -22.1139 7.96154 5.7
    endloop
  endfacet
  facet normal -0.988029 0.154269 0
    outer loop
      vertex -22.1904 7.59623 0
      vertex -22.1904 7.59623 5.7
      vertex -22.1616 7.78067 0
    endloop
  endfacet
  facet normal -0.988029 0.154269 0
    outer loop
      vertex -22.1616 7.78067 0
      vertex -22.1904 7.59623 5.7
      vertex -22.1616 7.78067 5.7
    endloop
  endfacet
  facet normal -0.998665 0.051646 0
    outer loop
      vertex -22.2 7.41 0
      vertex -22.2 7.41 5.7
      vertex -22.1904 7.59623 0
    endloop
  endfacet
  facet normal -0.998665 0.051646 0
    outer loop
      vertex -22.1904 7.59623 0
      vertex -22.2 7.41 5.7
      vertex -22.1904 7.59623 5.7
    endloop
  endfacet
  facet normal -1 0 0
    outer loop
      vertex -22.2 2.33406 0
      vertex -22.2 2.33406 5.7
      vertex -22.2 7.41 0
    endloop
  endfacet
  facet normal -1 0 0
    outer loop
      vertex -22.2 7.41 0
      vertex -22.2 2.33406 5.7
      vertex -22.2 7.41 5.7
    endloop
  endfacet
  facet normal 0.242982 0.970031 0
    outer loop
      vertex -22.3098 2.36157 0
      vertex -22.3098 2.36157 5.7
      vertex -22.2 2.33406 0
    endloop
  endfacet
  facet normal 0.242982 0.970031 0
    outer loop
      vertex -22.2 2.33406 0
      vertex -22.3098 2.36157 5.7
      vertex -22.2 2.33406 5.7
    endloop
  endfacet
  facet normal 0.146726 0.989177 0
    outer loop
      vertex -22.504 2.39037 0
      vertex -22.504 2.39037 5.7
      vertex -22.3098 2.36157 0
    endloop
  endfacet
  facet normal 0.146726 0.989177 0
    outer loop
      vertex -22.3098 2.36157 0
      vertex -22.504 2.39037 5.7
      vertex -22.3098 2.36157 5.7
    endloop
  endfacet
  facet normal 0.04907 0.998795 0
    outer loop
      vertex -22.7 2.4 0
      vertex -22.7 2.4 5.7
      vertex -22.504 2.39037 0
    endloop
  endfacet
  facet normal 0.04907 0.998795 0
    outer loop
      vertex -22.504 2.39037 0
      vertex -22.7 2.4 5.7
      vertex -22.504 2.39037 5.7
    endloop
  endfacet
  facet normal 0 1 0
    outer loop
      vertex -38.5 2.4 0
      vertex -38.5 2.4 5.7
      vertex -22.7 2.4 0
    endloop
  endfacet
  facet normal 0 1 0
    outer loop
      vertex -22.7 2.4 0
      vertex -38.5 2.4 5.7
      vertex -22.7 2.4 5.7
    endloop
  endfacet
  facet normal -0.04907 0.998795 0
    outer loop
      vertex -38.696 2.39037 0
      vertex -38.696 2.39037 5.7
      vertex -38.5 2.4 0
    endloop
  endfacet
  facet normal -0.04907 0.998795 0
    outer loop
      vertex -38.5 2.4 0
      vertex -38.696 2.39037 5.7
      vertex -38.5 2.4 5.7
    endloop
  endfacet
  facet normal -0.146726 0.989177 0
    outer loop
      vertex -38.8902 2.36157 0
      vertex -38.8902 2.36157 5.7
      vertex -38.696 2.39037 0
    endloop
  endfacet
  facet normal -0.146726 0.989177 0
    outer loop
      vertex -38.696 2.39037 0
      vertex -38.8902 2.36157 5.7
      vertex -38.696 2.39037 5.7
    endloop
  endfacet
  facet normal -0.242982 0.970031 0
    outer loop
      vertex -39.0806 2.31388 0
      vertex -39.0806 2.31388 5.7
      vertex -38.8902 2.36157 0
    endloop
  endfacet
  facet normal -0.242982 0.970031 0
    outer loop
      vertex -38.8902 2.36157 0
      vertex -39.0806 2.31388 5.7
      vertex -38.8902 2.36157 5.7
    endloop
  endfacet
  facet normal -0.336891 0.941544 0
    outer loop
      vertex -39.2654 2.24776 0
      vertex -39.2654 2.24776 5.7
      vertex -39.0806 2.31388 0
    endloop
  endfacet
  facet normal -0.336891 0.941544 0
    outer loop
      vertex -39.0806 2.31388 0
      vertex -39.2654 2.24776 5.7
      vertex -39.0806 2.31388 5.7
    endloop
  endfacet
  facet normal -0.427554 0.90399 0
    outer loop
      vertex -39.4428 2.16384 0
      vertex -39.4428 2.16384 5.7
      vertex -39.2654 2.24776 0
    endloop
  endfacet
  facet normal -0.427554 0.90399 0
    outer loop
      vertex -39.2654 2.24776 0
      vertex -39.4428 2.16384 5.7
      vertex -39.2654 2.24776 5.7
    endloop
  endfacet
  facet normal -0.514105 0.857727 0
    outer loop
      vertex -39.6111 2.06294 0
      vertex -39.6111 2.06294 5.7
      vertex -39.4428 2.16384 0
    endloop
  endfacet
  facet normal -0.514105 0.857727 0
    outer loop
      vertex -39.4428 2.16384 0
      vertex -39.6111 2.06294 5.7
      vertex -39.4428 2.16384 5.7
    endloop
  endfacet
  facet normal -0.595696 0.80321 0
    outer loop
      vertex -39.7688 1.94602 0
      vertex -39.7688 1.94602 5.7
      vertex -39.6111 2.06294 0
    endloop
  endfacet
  facet normal -0.595696 0.80321 0
    outer loop
      vertex -39.6111 2.06294 0
      vertex -39.7688 1.94602 5.7
      vertex -39.6111 2.06294 5.7
    endloop
  endfacet
  facet normal -0.671558 0.740952 0
    outer loop
      vertex -39.9142 1.81421 0
      vertex -39.9142 1.81421 5.7
      vertex -39.7688 1.94602 0
    endloop
  endfacet
  facet normal -0.671558 0.740952 0
    outer loop
      vertex -39.7688 1.94602 0
      vertex -39.9142 1.81421 5.7
      vertex -39.7688 1.94602 5.7
    endloop
  endfacet
  facet normal -0.740952 0.671558 0
    outer loop
      vertex -40.046 1.66879 0
      vertex -40.046 1.66879 5.7
      vertex -39.9142 1.81421 0
    endloop
  endfacet
  facet normal -0.740952 0.671558 0
    outer loop
      vertex -39.9142 1.81421 0
      vertex -40.046 1.66879 5.7
      vertex -39.9142 1.81421 5.7
    endloop
  endfacet
  facet normal -0.80321 0.595696 0
    outer loop
      vertex -40.1629 1.51114 0
      vertex -40.1629 1.51114 5.7
      vertex -40.046 1.66879 0
    endloop
  endfacet
  facet normal -0.80321 0.595696 0
    outer loop
      vertex -40.046 1.66879 0
      vertex -40.1629 1.51114 5.7
      vertex -40.046 1.66879 5.7
    endloop
  endfacet
  facet normal -0.857727 0.514105 0
    outer loop
      vertex -40.2638 1.34279 0
      vertex -40.2638 1.34279 5.7
      vertex -40.1629 1.51114 0
    endloop
  endfacet
  facet normal -0.857727 0.514105 0
    outer loop
      vertex -40.1629 1.51114 0
      vertex -40.2638 1.34279 5.7
      vertex -40.1629 1.51114 5.7
    endloop
  endfacet
  facet normal -0.90399 0.427554 0
    outer loop
      vertex -40.3478 1.16537 0
      vertex -40.3478 1.16537 5.7
      vertex -40.2638 1.34279 0
    endloop
  endfacet
  facet normal -0.90399 0.427554 0
    outer loop
      vertex -40.2638 1.34279 0
      vertex -40.3478 1.16537 5.7
      vertex -40.2638 1.34279 5.7
    endloop
  endfacet
  facet normal -0.941544 0.336891 0
    outer loop
      vertex -40.4139 0.980569 0
      vertex -40.4139 0.980569 5.7
      vertex -40.3478 1.16537 0
    endloop
  endfacet
  facet normal -0.941544 0.336891 0
    outer loop
      vertex -40.3478 1.16537 0
      vertex -40.4139 0.980569 5.7
      vertex -40.3478 1.16537 5.7
    endloop
  endfacet
  facet normal -0.970031 0.242982 0
    outer loop
      vertex -40.4616 0.790181 0
      vertex -40.4616 0.790181 5.7
      vertex -40.4139 0.980569 0
    endloop
  endfacet
  facet normal -0.970031 0.242982 0
    outer loop
      vertex -40.4139 0.980569 0
      vertex -40.4616 0.790181 5.7
      vertex -40.4139 0.980569 5.7
    endloop
  endfacet
  facet normal -0.989177 0.146726 0
    outer loop
      vertex -40.4904 0.596034 0
      vertex -40.4904 0.596034 5.7
      vertex -40.4616 0.790181 0
    endloop
  endfacet
  facet normal -0.989177 0.146726 0
    outer loop
      vertex -40.4616 0.790181 0
      vertex -40.4904 0.596034 5.7
      vertex -40.4616 0.790181 5.7
    endloop
  endfacet
  facet normal -0.998795 0.04907 0
    outer loop
      vertex -40.5 0.4 0
      vertex -40.5 0.4 5.7
      vertex -40.4904 0.596034 0
    endloop
  endfacet
  facet normal -0.998795 0.04907 0
    outer loop
      vertex -40.4904 0.596034 0
      vertex -40.5 0.4 5.7
      vertex -40.4904 0.596034 5.7
    endloop
  endfacet
endsolid OpenSCAD_Model
